# xmcd
#
# Track frame offsets:
#	150
#	10572
#	29633
#	43046
#	60487
#	75520
#	91125
#	101725
#	113996
#	128282
#	144582
#	158920
#	170194
#	184440
#	204214
#	220724
#
# Disc length: 3236 seconds
# Revision: 2
# Processed by: cddbd v1.5.2PL0 Copyright (c) Steve Scherf et al.
# Submitted via: dBpowerAMP V12.0
#
DISCID=d10ca210
DTITLE=Tomislav Goluban - Blow Junkie
DYEAR=2014
DGENRE=Blues
TTITLE0=Harp Rockin'
TTITLE1=Blow Junkie Boogie
TTITLE2=Electric Lights
TTITLE3=Gambler's Blues
TTITLE4=On The Roof
TTITLE5=Blues For Mother Earth
TTITLE6=Boogie 44
TTITLE7=Drivin' and Ridin'
TTITLE8=Forhill's Boogie
TTITLE9=Two Rockets
TTITLE10=Until The Morning Comes
TTITLE11=Freedom King
TTITLE12=Messin' With The Kid
TTITLE13=Speedin' Train
TTITLE14=Blow Junkie
TTITLE15=Springtime Fever
EXTD=
EXTT0=
EXTT1=
EXTT2=
EXTT3=
EXTT4=
EXTT5=
EXTT6=
EXTT7=
EXTT8=
EXTT9=
EXTT10=
EXTT11=
EXTT12=
EXTT13=
EXTT14=
EXTT15=
PLAYORDER=
